# xmcd
#
# Track frame offsets: 
#        150
#        16400
#        35517
#        61752
#        79780
#        109162
#        129185
#        144680
#        154682
#        180025
#        188277
#        209302
#        222660
#
# Disc length: 3079 seconds
#
# Revision: 0
# Processed by: cddbd v1.5.1PL2 Copyright (c) Steve Scherf et al.
# Submitted via: ExactAudioCopy v0.95b3
#
DISCID=a50c050d
DTITLE=John Brim - Jake's Blues
DYEAR=1999
DGENRE=Blues
TTITLE0=Tougher Times
TTITLE1=Walkin' With Grace
TTITLE2=What May Be Your Name
TTITLE3=You Put The Hurt On Me
TTITLE4=I Just Got To Know
TTITLE5=Dedicated To Grace (Part 1)
TTITLE6=Boogie Home
TTITLE7=No Place To Go
TTITLE8=Hey Baby
TTITLE9=Movin' Out Too
TTITLE10=Dedicated To Grace (Part 2)
TTITLE11=Oooowee
TTITLE12=*
EXTD=
EXTT0=
EXTT1=
EXTT2=
EXTT3=
EXTT4=
EXTT5=
EXTT6=
EXTT7=
EXTT8=
EXTT9=
EXTT10=
EXTT11=
EXTT12=
PLAYORDER=
